<?xml version="1.0" standalone="no"?>
<!DOCTYPE svg PUBLIC "-//W3C//DTD SVG 20010904//EN"
 "http://www.w3.org/TR/2001/REC-SVG-20010904/DTD/svg10.dtd">
<svg version="1.0" xmlns="http://www.w3.org/2000/svg"
 width="700.000000pt" height="700.000000pt" viewBox="0 0 700.000000 700.000000"
 preserveAspectRatio="xMidYMid meet">
<metadata>
Created by potrace 1.14, written by Peter Selinger 2001-2017
</metadata>
<g transform="translate(0.000000,700.000000) scale(0.100000,-0.100000)"
fill="#000000" stroke="none">
<path d="M103 6623 c8 -439 32 -1165 47 -1403 25 -403 31 -592 37 -1170 5
-611 -2 -1048 -32 -1875 -31 -841 -46 -1320 -61 -1881 -6 -236 -2 -271 29
-222 12 18 16 92 21 348 9 465 46 1288 61 1355 11 48 36 489 46 820 14 453 9
842 -30 2150 -4 143 -9 384 -10 535 -1 151 -4 289 -7 305 -3 17 -9 269 -14
560 -9 525 -13 598 -47 768 -12 62 -21 87 -32 87 -12 0 -13 -49 -8 -377z"/>
<path d="M585 6963 c-5 -21 -9 -342 -10 -713 -1 -371 -4 -691 -8 -710 -10 -51
-36 -609 -47 -1015 -17 -609 -10 -1940 14 -2605 3 -80 8 -275 11 -435 3 -159
8 -310 11 -335 3 -25 7 -247 9 -495 2 -247 6 -458 10 -467 4 -10 18 -18 31
-18 61 0 74 132 42 415 -10 83 -22 231 -28 330 -8 164 -13 749 -7 971 1 53 -3
101 -10 115 -15 32 -38 405 -37 604 1 88 6 279 12 425 27 624 34 1268 27 2610
-4 745 -8 1356 -10 1358 -1 2 -6 -14 -10 -35z"/>
<path d="M2088 6957 c-84 -134 -93 -188 -93 -622 l0 -360 -27 -72 c-60 -156
-72 -361 -42 -713 11 -139 14 -246 9 -430 -13 -485 23 -967 150 -2000 157
-1277 179 -1556 138 -1770 -12 -63 -31 -230 -43 -370 -22 -269 -41 -418 -65
-511 -8 -31 -15 -62 -15 -68 0 -22 39 -10 63 19 54 63 85 191 134 550 28 202
28 212 28 710 0 589 -15 831 -81 1295 -39 278 -118 676 -164 825 -12 39 -25
1121 -24 1930 1 588 21 919 80 1275 14 83 28 196 31 253 l6 102 -29 0 c-23 0
-34 -8 -56 -43z"/>
<path d="M2771 6965 c-76 -87 -112 -229 -136 -534 -9 -113 -18 -207 -20 -209
-11 -11 -33 9 -38 36 -10 49 14 244 53 439 23 112 24 143 9 196 -12 46 -29 47
-65 5 -63 -76 -123 -255 -129 -390 -2 -46 -7 -99 -11 -118 -14 -68 6 -23 56
130 59 177 69 200 70 153 1 -114 -53 -404 -145 -773 -182 -739 -180 -726 -180
-1115 0 -361 23 -568 116 -1055 11 -58 21 -143 23 -190 3 -91 19 -137 58 -164
12 -9 31 -16 42 -16 28 0 90 70 104 118 13 43 32 57 32 24 0 -10 9 -115 20
-233 77 -833 77 -1857 0 -2969 -5 -80 -10 -172 -9 -205 l0 -60 30 35 c75 88
115 356 98 664 -4 83 -13 244 -19 357 -12 234 -4 303 23 184 32 -142 38 -247
35 -646 -2 -306 0 -406 11 -447 16 -63 29 -74 37 -33 9 41 22 39 30 -4 3 -19
10 -33 14 -30 4 2 13 47 20 100 8 52 18 95 22 95 5 0 6 -10 2 -22 -20 -64 13
-215 57 -262 18 -19 19 -19 38 -2 37 34 53 103 58 246 5 121 3 137 -13 157
-26 30 -56 16 -93 -42 -26 -41 -31 -44 -39 -28 -7 12 -7 46 -2 94 14 120 18
450 9 624 -11 214 -30 408 -85 849 -94 765 -115 1089 -96 1448 7 123 19 273
27 333 21 157 19 443 -7 775 -30 394 -16 518 79 718 34 71 35 73 54 56 10 -9
19 -26 19 -36 0 -10 6 -21 14 -24 36 -14 55 -109 71 -369 14 -215 31 -325 53
-347 24 -24 109 157 137 290 24 118 34 229 41 477 l7 240 -31 135 c-35 149
-68 343 -82 477 -5 48 -14 124 -19 168 -6 44 -22 222 -36 395 -15 173 -28 321
-30 328 -3 9 -38 12 -129 12 l-124 0 -31 -35z m-207 -1180 c29 -61 20 -115
-60 -364 -125 -391 -164 -571 -164 -764 0 -137 16 -236 60 -364 42 -127 62
-163 89 -163 25 0 35 27 81 211 39 155 69 239 70 194 0 -11 16 -238 35 -505
53 -743 65 -1013 63 -1435 l-1 -380 -8 385 c-4 212 -14 484 -23 605 -8 121
-17 308 -20 416 -5 180 -23 359 -45 434 l-8 30 -13 -48 c-38 -144 -200 -123
-270 36 -18 40 -21 65 -19 135 1 48 -3 146 -10 217 -28 275 9 593 125 1090 24
104 44 210 44 236 0 80 43 100 74 34z"/>
<path d="M3484 6968 c3 -18 11 -163 17 -323 20 -513 -10 -1197 -82 -1840 -18
-168 -20 -247 -20 -1205 0 -564 3 -1104 6 -1200 2 -96 7 -330 10 -520 7 -412
21 -893 36 -1195 6 -121 14 -309 18 -417 5 -163 9 -200 22 -214 15 -14 19 -14
47 0 17 9 34 25 37 37 9 28 -5 753 -25 1294 -5 138 -12 349 -15 470 -3 121 -8
236 -10 255 -2 20 -7 249 -11 510 -6 384 -4 492 7 565 15 96 18 518 6 760 -6
122 -2 211 22 535 23 289 30 671 32 1563 1 672 -2 932 -10 940 -8 8 -11 8 -11
-1 0 -7 -4 -12 -10 -12 -5 0 -10 7 -10 15 0 10 -10 15 -31 15 -30 0 -31 -2
-25 -32z m51 -6207 c4 -113 9 -215 12 -226 3 -11 2 -17 -2 -13 -21 20 -34 155
-33 348 1 251 13 193 23 -109z"/>
<path d="M6005 6694 c-10 -425 4 -790 41 -1064 85 -632 99 -865 99 -1675 0
-416 -5 -771 -13 -915 -7 -129 -21 -393 -32 -586 -38 -683 -59 -1082 -69
-1319 -16 -363 -25 -974 -16 -1030 l8 -50 14 45 c27 89 43 219 58 450 24 383
35 520 50 620 10 64 18 272 25 640 6 300 15 788 21 1085 12 588 6 1672 -11
2015 -19 379 -39 623 -55 668 -22 62 -34 276 -34 632 -1 322 -10 481 -39 674
-29 189 -39 149 -47 -190z"/>
<path d="M6464 6973 c-3 -16 -10 -44 -14 -63 -26 -109 -31 -273 -34 -1102 -2
-480 -9 -1012 -16 -1183 -7 -170 -13 -539 -13 -820 0 -422 3 -527 16 -611 21
-134 43 -316 59 -494 17 -194 17 -1045 0 -1325 -7 -115 -22 -345 -32 -510 -23
-349 -23 -348 -10 -340 14 9 47 -49 54 -95 4 -26 0 -56 -11 -87 -33 -96 -18
-204 40 -269 40 -46 76 -64 131 -64 141 0 264 112 321 293 l25 79 4 766 c6
1028 6 3705 0 3765 -2 29 0 47 6 47 7 0 8 6 0 19 -6 12 -10 95 -10 200 0 134
-3 181 -12 184 -10 4 -9 8 2 16 12 9 13 14 2 31 -7 11 -8 20 -3 20 13 0 26
101 14 109 -6 3 -15 212 -22 486 -7 264 -15 488 -18 498 -3 11 8 47 23 80 25
54 29 74 29 157 0 89 -2 100 -35 165 l-35 70 -227 3 -228 2 -6 -27z m290 -798
c32 -482 37 -622 43 -1240 5 -616 -5 -1065 -24 -1100 -9 -16 -22 51 -38 197
-2 18 -13 110 -24 203 -53 444 -89 1051 -75 1235 5 58 9 272 9 475 0 398 5
444 59 570 l21 50 7 -75 c3 -41 14 -183 22 -315z"/>
<path d="M1323 6959 c-17 -11 -41 -39 -52 -62 -40 -84 -43 -124 -37 -507 6
-313 5 -374 -9 -430 -18 -75 -58 -647 -75 -1062 -25 -626 28 -1096 172 -1537
30 -92 30 -96 24 -240 -15 -357 -24 -752 -31 -1286 -10 -741 -36 -1668 -50
-1773 -3 -27 0 -34 25 -47 29 -15 29 -15 56 30 62 107 84 208 109 505 8 102
24 232 34 290 12 64 22 176 25 285 6 200 16 268 47 333 25 51 54 72 107 79
l40 5 10 -63 c26 -150 32 -325 30 -806 -3 -454 -1 -504 13 -519 25 -25 56 -2
86 62 21 47 25 68 24 153 -1 55 -3 105 -5 113 -3 7 -10 130 -16 273 -21 517
-28 628 -65 935 -125 1053 -165 1629 -149 2140 15 463 11 805 -10 945 -25 166
-68 329 -125 470 -54 132 -94 282 -113 420 -13 96 -15 355 -8 925 5 316 1 390
-18 390 -4 0 -21 -10 -39 -21z"/>
<path d="M3765 6943 c-14 -74 -22 -310 -14 -398 4 -49 17 -178 28 -285 61
-592 54 -1168 -28 -2340 -25 -353 -31 -519 -40 -1110 -19 -1191 -13 -2216 15
-2668 l6 -104 29 28 c78 75 89 172 39 344 -36 125 -39 213 -11 277 18 40 19
50 5 230 -36 498 -47 1327 -19 1558 21 182 34 425 40 783 7 424 25 588 83 767
l20 60 1 -241 c1 -268 -6 -435 -49 -1119 -49 -791 -53 -886 -54 -1300 0 -392
8 -564 40 -845 21 -180 80 -530 88 -518 2 2 -1 57 -5 123 -4 66 -11 376 -15
690 -8 687 3 1121 61 2455 56 1297 64 2086 30 2940 -20 488 -37 639 -77 663
-24 15 -44 -5 -66 -66 -19 -51 -19 -57 -1 -247 58 -622 106 -1905 80 -2140
-11 -106 -41 -231 -65 -279 -12 -22 -13 46 -9 449 7 564 -9 1145 -52 1945 -18
322 -25 385 -45 385 -4 0 -11 -17 -15 -37z"/>
<path d="M4430 6976 c0 -2 -11 -91 -24 -197 -30 -238 -62 -584 -81 -869 l-14
-215 5 240 c6 328 12 460 30 669 23 251 13 335 -34 293 -18 -16 -19 -45 -26
-425 -6 -374 -17 -756 -31 -1072 -3 -69 -10 -231 -15 -360 -6 -129 -19 -446
-30 -705 -34 -827 -40 -1020 -49 -1545 -8 -570 -7 -1356 3 -1489 10 -118 40
-398 76 -696 17 -137 36 -323 42 -412 9 -118 16 -163 25 -163 7 0 27 13 46 29
29 26 34 37 36 80 1 28 -3 79 -10 113 -7 35 -11 119 -10 188 2 150 -13 245
-75 469 -72 260 -75 280 -82 646 -17 878 -3 1716 49 2925 20 481 27 598 25
422 -2 -133 -1 -240 1 -238 3 2 11 63 18 136 14 126 22 302 45 915 12 312 18
372 60 595 42 224 51 292 52 415 0 97 -17 255 -28 255 -2 0 -4 -2 -4 -4z
m-123 -1463 c-2 -27 -3 -5 -3 47 0 52 1 74 3 48 2 -27 2 -69 0 -95z m-10 -285
c-2 -29 -3 -6 -3 52 0 58 1 81 3 53 2 -29 2 -77 0 -105z"/>
<path d="M990 6964 c0 -5 -9 -88 -20 -184 -24 -216 -37 -437 -50 -870 -10
-322 -22 -559 -38 -740 l-7 -85 -6 75 c-13 163 8 769 39 1145 18 227 22 500 8
580 -8 48 -9 49 -17 20 -29 -113 -49 -459 -70 -1195 -6 -217 -14 -471 -19
-565 -23 -461 -33 -1315 -21 -1861 14 -678 44 -1333 71 -1584 12 -109 37 -414
46 -555 15 -257 2 -858 -22 -978 -5 -25 -3 -28 17 -25 31 4 56 50 68 128 17
100 13 456 -9 875 -17 327 -46 969 -65 1450 -32 788 -55 1897 -35 1695 4 -47
9 -119 10 -160 2 -71 3 -73 11 -30 4 25 8 169 8 320 1 301 16 655 61 1465 36
644 54 1074 46 1082 -3 4 -6 2 -6 -3z m-180 -3454 c0 -5 -5 -10 -11 -10 -5 0
-7 5 -4 10 3 6 8 10 11 10 2 0 4 -4 4 -10z"/>
<path d="M4562 6947 c-27 -28 -50 -94 -58 -163 -4 -32 -11 -51 -17 -47 -6 4
-8 -3 -4 -18 11 -42 9 -341 -2 -429 -104 -825 -155 -2169 -116 -3080 24 -554
26 -578 50 -700 53 -275 100 -657 126 -1020 15 -215 22 -1012 11 -1260 -5
-113 -8 -206 -7 -208 7 -10 83 85 106 133 54 115 55 123 40 782 -11 489 -16
581 -57 1163 l-26 365 -49 200 c-110 446 -119 650 -88 1990 11 507 15 557 99
1140 82 572 120 911 120 1082 0 61 -3 74 -19 83 -34 18 -86 12 -109 -13z"/>
<path d="M5354 6961 c-32 -14 -72 -67 -85 -114 -19 -68 -11 -266 20 -502 16
-121 29 -210 30 -198 1 12 28 129 62 260 54 209 62 253 66 358 2 66 1 138 -4
160 -8 35 -13 40 -38 42 -17 1 -39 -2 -51 -6z"/>
<path d="M6110 6608 c0 -406 11 -635 46 -973 43 -418 54 -529 55 -580 l1 -50
9 40 c20 92 10 684 -18 1085 -4 58 -7 113 -7 122 0 9 -3 15 -7 12 -4 -2 -6 10
-4 28 3 18 9 125 15 238 11 202 6 299 -18 362 -11 27 -49 68 -64 68 -4 0 -8
-159 -8 -352z"/>
<path d="M724 6932 c-11 -7 -14 -113 -34 -1202 -17 -969 -21 -2892 -8 -3935
10 -752 27 -1589 34 -1683 6 -71 6 -73 31 -70 15 2 35 15 45 29 42 56 36 984
-17 2489 -43 1246 -48 1486 -42 2263 5 699 10 874 38 1262 6 88 11 216 10 285
-1 69 6 179 14 245 8 66 15 148 15 183 0 62 -20 132 -39 132 -5 0 -15 2 -23 5
-7 3 -18 1 -24 -3z"/>
<path d="M1932 6808 c-118 -971 -138 -1249 -128 -1743 18 -865 37 -1577 46
-1725 5 -91 10 -187 10 -215 1 -75 15 -38 35 90 22 141 16 285 -15 370 l-22
60 -1 990 c-2 1213 5 1395 63 1745 22 135 43 286 47 336 6 91 -2 184 -16 184
-4 0 -12 -42 -19 -92z"/>
<path d="M3134 6870 c3 -19 13 -98 22 -175 18 -166 112 -940 151 -1247 15
-120 30 -218 33 -218 3 1 17 18 31 38 57 83 99 436 100 832 0 322 -11 648 -23
675 -8 19 -6 -117 8 -590 6 -206 -4 -379 -27 -427 -28 -62 -85 -39 -131 52
-24 46 -30 79 -42 205 -8 83 -17 238 -20 345 -7 228 -25 360 -61 456 -31 81
-49 106 -41 54z"/>
<path d="M4802 6888 c-24 -30 -35 -160 -42 -528 -5 -276 -13 -439 -28 -575
-50 -456 -66 -903 -59 -1565 6 -481 14 -724 52 -1600 33 -764 38 -1088 33
-2275 -1 -148 1 -166 26 -242 15 -46 30 -83 33 -83 3 0 3 334 0 742 -6 716
-25 1425 -46 1728 -28 398 -36 733 -35 1480 0 717 6 1011 34 1735 10 268 13
339 35 855 8 184 13 336 11 337 -2 2 -8 -2 -14 -9z"/>
<path d="M1521 6801 c-44 -81 -59 -581 -26 -845 7 -56 8 -58 21 -35 28 49 55
158 73 294 16 127 17 154 5 290 -17 185 -32 278 -48 301 -13 17 -14 16 -25 -5z"/>
<path d="M1860 6798 c0 -2 -9 -68 -19 -148 -11 -80 -23 -182 -27 -228 -5 -68
-10 -85 -26 -93 -32 -17 -64 -2 -84 38 -16 33 -19 62 -19 208 1 128 -2 160 -9
130 -15 -63 -11 -307 8 -470 22 -190 23 -388 3 -475 -28 -116 -28 -116 -92
-123 -100 -10 -135 -51 -111 -130 7 -25 50 -106 95 -180 121 -201 122 -207
110 -440 -13 -261 -13 -1035 1 -1287 13 -258 20 -331 75 -835 87 -800 116
-1134 136 -1560 12 -264 7 -802 -11 -1000 -5 -60 -7 -111 -5 -113 2 -2 12 9
22 24 15 23 19 55 23 174 4 120 8 150 24 173 17 25 18 41 12 165 -3 75 -13
308 -21 517 -28 712 -41 887 -85 1158 -17 100 -30 186 -30 191 1 6 9 -5 20
-24 10 -19 35 -51 55 -70 l37 -35 -6 40 c-15 99 -45 363 -57 494 -7 91 -15
137 -20 124 -10 -27 -49 -257 -50 -297 -1 -29 -2 -28 -9 9 -25 129 -66 663
-80 1035 -31 853 5 1582 145 2978 3 28 3 52 0 52 -3 0 -5 -1 -5 -2z"/>
<path d="M5698 6269 c-40 -51 -77 -138 -93 -217 -8 -38 -22 -177 -30 -308 -8
-132 -20 -257 -25 -279 -6 -22 -26 -197 -45 -390 -68 -667 -100 -866 -151
-923 l-24 -27 -25 28 c-34 38 -66 149 -114 392 -46 235 -74 422 -91 600 -6 66
-17 183 -25 260 -8 77 -17 195 -20 262 -8 142 -26 232 -51 250 -25 18 -29 17
-73 -22 l-38 -35 -6 -237 c-3 -131 -15 -366 -26 -523 -32 -434 -27 -1326 13
-2570 9 -261 22 -698 31 -970 23 -775 27 -860 35 -860 5 0 12 4 15 10 3 5 18
10 32 10 25 0 25 -2 19 -42 -18 -109 -18 -134 -3 -146 16 -14 67 -6 67 10 0
45 43 691 56 828 8 96 69 579 135 1072 65 493 119 909 119 925 0 15 5 45 11
66 14 52 41 49 107 -15 62 -59 63 -61 131 -453 70 -403 120 -601 192 -760 19
-42 23 -47 29 -29 11 29 66 377 84 529 48 404 69 1034 48 1438 -10 191 -10
211 6 235 16 24 16 26 0 20 -19 -8 -16 -28 -43 307 -19 232 -61 612 -80 720
-7 44 -23 175 -35 290 -25 255 -51 415 -82 515 l-24 74 -26 -35z m85 -809
c106 -661 144 -1133 134 -1680 -4 -179 -11 -372 -16 -430 -19 -201 -45 -400
-52 -400 -3 0 -22 37 -42 83 -137 320 -210 666 -248 1169 -6 86 -9 181 -5 210
4 29 11 233 15 453 9 426 15 485 66 635 29 86 94 205 105 193 4 -4 24 -109 43
-233z m-718 -1107 c25 -191 57 -430 71 -531 32 -238 43 -427 44 -748 0 -411
-29 -624 -97 -704 -25 -30 -63 -39 -92 -21 -8 5 -18 49 -27 117 -24 200 -35
449 -71 1725 -7 241 7 438 43 618 14 68 28 129 32 135 10 16 45 -200 97 -591z
m-70 -2633 c3 -5 -1 -10 -10 -10 -9 0 -13 5 -10 10 3 6 8 10 10 10 2 0 7 -4
10 -10z"/>
<path d="M4727 6180 c-27 -185 -80 -932 -62 -870 10 33 55 496 66 675 12 203
10 293 -4 195z"/>
<path d="M2261 5625 c-18 -41 -58 -199 -66 -260 l-6 -50 20 25 c11 14 27 45
36 70 19 58 38 181 33 217 l-4 28 -13 -30z"/>
<path d="M6992 5080 c0 -14 2 -19 5 -12 2 6 2 18 0 25 -3 6 -5 1 -5 -13z"/>
<path d="M6228 4404 c-2 -132 -4 -744 -6 -1361 -2 -899 0 -1122 10 -1126 10
-4 10 -8 -1 -15 -12 -8 -13 -41 -7 -194 4 -100 13 -221 21 -268 12 -78 13 -59
9 255 -2 187 -7 925 -10 1640 -3 715 -8 1302 -10 1304 -2 2 -5 -104 -6 -235z"/>
<path d="M2902 4398 c-77 -660 -84 -1373 -21 -2318 35 -533 44 -616 99 -880
113 -544 130 -658 140 -935 l8 -210 -3 270 c-4 340 -15 434 -129 1135 -104
637 -118 820 -120 1555 -1 353 2 440 17 545 20 140 75 380 87 380 4 0 13 -13
20 -29 6 -16 22 -39 36 -51 32 -31 49 -16 74 71 11 38 29 100 40 137 11 38 29
80 40 94 21 28 67 45 81 31 10 -10 33 -272 48 -543 20 -352 31 -718 46 -1470
14 -721 31 -1288 40 -1320 2 -8 2 89 -1 215 -2 127 -9 545 -14 930 -15 1096
-27 1574 -51 1985 -7 131 -7 192 2 242 16 90 2 144 -43 163 -36 14 -79 6 -111
-22 -29 -26 -57 -92 -57 -136 0 -51 -34 -117 -60 -117 -28 0 -37 28 -71 215
-29 167 -49 237 -66 242 -6 2 -18 -69 -31 -179z"/>
<path d="M4270 4214 c0 -43 -2 -128 -5 -189 -30 -642 -41 -1339 -26 -1670 17
-361 23 -419 96 -855 107 -639 132 -915 114 -1259 -10 -173 -8 -204 8 -188 29
30 54 841 34 1133 -5 88 -28 272 -50 410 -42 263 -83 549 -100 699 -33 280
-36 357 -36 1090 -1 542 -4 771 -13 824 -7 41 -15 77 -17 80 -3 2 -5 -31 -5
-75z"/>
<path d="M884 3585 c10 -390 41 -1084 50 -1125 8 -33 5 157 -4 380 -32 751
-43 976 -47 980 -3 3 -2 -103 1 -235z"/>
<path d="M128 2843 c-13 -19 -28 -373 -27 -618 2 -276 11 -214 29 200 12 275
11 439 -2 418z"/>
<path d="M3152 2543 c-22 -8 -44 -64 -53 -136 -10 -79 0 -212 37 -506 13 -107
24 -216 24 -242 0 -27 4 -49 10 -49 13 0 48 117 67 225 24 138 14 338 -27 540
-18 88 -35 163 -39 166 -3 4 -12 4 -19 2z"/>
<path d="M943 2390 c0 -30 2 -43 4 -27 2 15 2 39 0 55 -2 15 -4 2 -4 -28z"/>
<path d="M624 2206 c-4 -11 0 -24 9 -34 15 -14 17 -14 23 2 4 11 0 24 -9 34
-15 14 -17 14 -23 -2z"/>
<path d="M966 1860 c3 -124 12 -263 19 -310 33 -199 37 -294 37 -835 -1 -302
3 -538 8 -524 18 62 33 325 33 614 0 279 -4 339 -32 600 -17 160 -40 378 -51
485 l-19 195 5 -225z"/>
<path d="M96 1843 c-13 -91 -18 -258 -7 -248 11 11 29 285 18 285 -3 0 -8 -17
-11 -37z"/>
<path d="M2046 1865 c-11 -30 -6 -91 25 -332 35 -279 35 -364 -5 -498 -29
-101 -40 -209 -56 -555 -9 -197 -22 -304 -46 -388 -6 -20 -4 -21 17 -13 28 10
35 36 75 281 15 91 29 167 33 170 3 3 6 34 7 70 0 36 6 137 12 224 22 290 13
678 -21 955 -11 89 -27 122 -41 86z"/>
<path d="M5356 1547 c-30 -183 -70 -783 -82 -1226 -8 -285 -11 -271 68 -271
57 0 97 30 124 92 17 39 19 74 20 368 1 323 1 326 33 490 38 194 43 320 16
401 -20 60 -81 131 -137 160 l-37 19 -5 -33z"/>
<path d="M5926 1214 c-3 -9 -6 -86 -6 -172 0 -120 3 -153 12 -144 13 13 33
269 24 307 -7 28 -21 33 -30 9z"/>
<path d="M5633 1113 c-10 -49 -10 -209 1 -248 15 -55 25 1 25 148 1 135 -10
176 -26 100z"/>
<path d="M6242 1013 c-7 -72 -37 -279 -66 -460 -74 -448 -78 -507 -32 -490 21
8 71 99 96 172 19 58 20 82 18 485 -3 414 -3 422 -16 293z"/>
<path d="M1635 1040 c-82 -33 -112 -141 -140 -505 -9 -116 -22 -248 -30 -295
-8 -46 -13 -86 -11 -87 6 -6 45 94 61 154 14 53 25 160 41 396 l6 87 39 0 c33
0 42 -5 59 -32 29 -49 34 -139 16 -330 -18 -197 -20 -241 -7 -234 45 28 49
683 5 839 -6 19 -10 20 -39 7z"/>
<path d="M3412 760 c0 -19 2 -27 5 -17 2 9 2 25 0 35 -3 9 -5 1 -5 -18z"/>
<path d="M4716 762 c-4 -18 -5 -36 -2 -39 11 -12 17 5 14 39 l-3 33 -9 -33z"/>
<path d="M5637 500 c-11 -57 -49 -400 -45 -412 2 -6 15 20 28 58 18 55 24 97
28 204 2 74 2 146 0 160 -3 22 -4 21 -11 -10z"/>
</g>
</svg>
